<svg width="760" height="280" viewBox="0 0 760 280" fill="none" xmlns="http://www.w3.org/2000/svg">
  <defs>
    <linearGradient id="osrBlue" x1="168" y1="34" x2="309" y2="204" gradientUnits="userSpaceOnUse">
      <stop stop-color="#1E94D9"/>
      <stop offset="1" stop-color="#0571BC"/>
    </linearGradient>
  </defs>

  <g transform="translate(64,8)">
    <circle cx="182" cy="110" r="92" stroke="url(#osrBlue)" stroke-width="20"/>
    <path d="M88 122C141 74 214 57 300 74" stroke="url(#osrBlue)" stroke-width="18" stroke-linecap="round"/>
    <path d="M80 137C150 109 232 110 306 167" stroke="url(#osrBlue)" stroke-width="13" stroke-linecap="round"/>
    <path d="M286 49L328 71L284 83L294 100L270 111L262 89L230 95L258 70L248 44L276 49L286 22V49Z" fill="#0571BC"/>
    <path d="M145 90C155 78 168 74 183 75C194 75 205 79 214 87C194 92 173 94 145 90Z" fill="#1E94D9" opacity="0.85"/>
    <path d="M173 112C181 105 194 103 205 108C197 116 185 121 173 112Z" fill="#1E94D9" opacity="0.85"/>
    <path d="M197 128C209 122 223 124 236 134C223 141 209 141 197 128Z" fill="#1E94D9" opacity="0.85"/>
  </g>

  <text
    x="380"
    y="250"
    text-anchor="middle"
    fill="#0571BC"
    font-family="Arial, Helvetica, sans-serif"
    font-weight="700"
    font-size="74"
    letter-spacing="2"
  >
    OSR HOLIDAYS
  </text>
</svg>
